NotoSansOsmanya-Regular.ufo
<glyph name="u10480" format="2">
  <advance width="633"/>
  <unicode hex="10480"/>
  <outline>
    <contour>
      <point x="276" y="-10" type="curve" smooth="yes"/>
      <point x="460" y="-10"/>
      <point x="565" y="112"/>
      <point x="565" y="277" type="curve" smooth="yes"/>
      <point x="565" y="394"/>
      <point x="514" y="491"/>
      <point x="409" y="585" type="curve"/>
      <point x="444" y="607"/>
      <point x="483" y="631"/>
      <point x="528" y="656" type="curve"/>
      <point x="495" y="728" type="line"/>
      <point x="439" y="697"/>
      <point x="389" y="668"/>
      <point x="344" y="639" type="curve"/>
      <point x="305" y="668"/>
      <point x="262" y="697"/>
      <point x="212" y="728" type="curve"/>
      <point x="165" y="656" type="line"/>
      <point x="204" y="631"/>
      <point x="238" y="607"/>
      <point x="268" y="585" type="curve"/>
      <point x="139" y="482"/>
      <point x="39" y="358"/>
      <point x="39" y="199" type="curve" smooth="yes"/>
      <point x="39" y="76"/>
      <point x="120" y="-10"/>
    </contour>
    <contour>
      <point x="284" y="68" type="curve" smooth="yes"/>
      <point x="188" y="68"/>
      <point x="134" y="118"/>
      <point x="134" y="206" type="curve" smooth="yes"/>
      <point x="134" y="351"/>
      <point x="226" y="453"/>
      <point x="333" y="533" type="curve"/>
      <point x="437" y="443"/>
      <point x="470" y="367"/>
      <point x="470" y="277" type="curve" smooth="yes"/>
      <point x="470" y="153"/>
      <point x="412" y="68"/>
    </contour>
  </outline>
</glyph>
<glyph name="u10481" format="2">
  <advance width="697"/>
  <unicode hex="10481"/>
  <outline>
    <contour>
      <point x="244" y="-11" type="curve" smooth="yes"/>
      <point x="380" y="-11"/>
      <point x="546" y="53"/>
      <point x="583" y="271" type="curve"/>
      <point x="614" y="273"/>
      <point x="644" y="275"/>
      <point x="671" y="276" type="curve"/>
      <point x="683" y="352" type="line"/>
      <point x="659" y="351"/>
      <point x="627" y="350"/>
      <point x="591" y="347" type="curve"/>
      <point x="629" y="714" type="line"/>
      <point x="539" y="714" type="line"/>
      <point x="520" y="540" type="line" smooth="yes"/>
      <point x="514" y="487"/>
      <point x="492" y="458"/>
      <point x="440" y="458" type="curve" smooth="yes"/>
      <point x="387" y="458"/>
      <point x="375" y="492"/>
      <point x="375" y="530" type="curve" smooth="yes"/>
      <point x="375" y="541"/>
      <point x="376" y="552"/>
      <point x="377" y="563" type="curve" smooth="yes"/>
      <point x="393" y="714" type="line"/>
      <point x="303" y="714" type="line"/>
      <point x="285" y="540" type="line" smooth="yes"/>
      <point x="280" y="487"/>
      <point x="252" y="458"/>
      <point x="200" y="458" type="curve" smooth="yes"/>
      <point x="154" y="458"/>
      <point x="138" y="489"/>
      <point x="138" y="524" type="curve" smooth="yes"/>
      <point x="138" y="529"/>
      <point x="141" y="563"/>
      <point x="142" y="568" type="curve" smooth="yes"/>
      <point x="156" y="714" type="line"/>
      <point x="66" y="714" type="line"/>
      <point x="50" y="555" type="line" smooth="yes"/>
      <point x="49" y="544"/>
      <point x="49" y="532"/>
      <point x="49" y="522" type="curve" smooth="yes"/>
      <point x="49" y="418"/>
      <point x="110" y="379"/>
      <point x="190" y="379" type="curve" smooth="yes"/>
      <point x="240" y="379"/>
      <point x="282" y="397"/>
      <point x="313" y="426" type="curve"/>
      <point x="339" y="396"/>
      <point x="377" y="379"/>
      <point x="426" y="379" type="curve" smooth="yes"/>
      <point x="455" y="379"/>
      <point x="482" y="386"/>
      <point x="505" y="397" type="curve"/>
      <point x="498" y="337" type="line"/>
      <point x="303" y="312"/>
      <point x="57" y="251"/>
      <point x="57" y="124" type="curve" smooth="yes"/>
      <point x="57" y="54"/>
      <point x="90" y="-11"/>
    </contour>
    <contour>
      <point x="245" y="67" type="curve" smooth="yes"/>
      <point x="165" y="67"/>
      <point x="147" y="88"/>
      <point x="147" y="123" type="curve" smooth="yes"/>
      <point x="147" y="192"/>
      <point x="319" y="238"/>
      <point x="487" y="261" type="curve"/>
      <point x="462" y="150"/>
      <point x="388" y="67"/>
    </contour>
  </outline>
</glyph>
<glyph name="u10482" format="2">
  <advance width="699"/>
  <unicode hex="10482"/>
  <outline>
    <contour>
      <point x="477" y="-12" type="curve" smooth="yes"/>
      <point x="615" y="-12"/>
      <point x="660" y="98"/>
      <point x="660" y="213" type="curve" smooth="yes"/>
      <point x="660" y="226"/>
      <point x="659" y="267"/>
      <point x="650" y="303" type="curve"/>
      <point x="564" y="282" type="line"/>
      <point x="571" y="248"/>
      <point x="572" y="215"/>
      <point x="572" y="206" type="curve" smooth="yes"/>
      <point x="572" y="149"/>
      <point x="558" y="66"/>
      <point x="479" y="66" type="curve" smooth="yes"/>
      <point x="441" y="66"/>
      <point x="421" y="92"/>
      <point x="421" y="157" type="curve" smooth="yes"/>
      <point x="421" y="177"/>
      <point x="425" y="212"/>
      <point x="429" y="254" type="curve" smooth="yes"/>
      <point x="477" y="714" type="line"/>
      <point x="387" y="714" type="line"/>
      <point x="372" y="566" type="line"/>
      <point x="174" y="566" type="line" smooth="yes"/>
      <point x="89" y="566"/>
      <point x="20" y="490"/>
      <point x="20" y="412" type="curve" smooth="yes"/>
      <point x="20" y="342"/>
      <point x="73" y="288"/>
      <point x="145" y="288" type="curve" smooth="yes"/>
      <point x="231" y="288"/>
      <point x="300" y="354"/>
      <point x="300" y="442" type="curve" smooth="yes"/>
      <point x="300" y="459"/>
      <point x="297" y="476"/>
      <point x="291" y="491" type="curve"/>
      <point x="364" y="491" type="line"/>
      <point x="336" y="232" type="line" smooth="yes"/>
      <point x="329" y="169"/>
      <point x="329" y="162"/>
      <point x="329" y="145" type="curve" smooth="yes"/>
      <point x="329" y="40"/>
      <point x="380" y="-12"/>
    </contour>
    <contour>
      <point x="153" y="364" type="curve" smooth="yes"/>
      <point x="120" y="364"/>
      <point x="96" y="388"/>
      <point x="96" y="420" type="curve" smooth="yes"/>
      <point x="96" y="458"/>
      <point x="130" y="490"/>
      <point x="167" y="490" type="curve" smooth="yes"/>
      <point x="199" y="490"/>
      <point x="224" y="466"/>
      <point x="224" y="434" type="curve" smooth="yes"/>
      <point x="224" y="395"/>
      <point x="189" y="364"/>
    </contour>
  </outline>
</glyph>
<glyph name="u10483" format="2">
  <advance width="301"/>
  <unicode hex="10483"/>
  <outline>
    <contour>
      <point x="68" y="0" type="line"/>
      <point x="158" y="0" type="line"/>
      <point x="233" y="714" type="line"/>
      <point x="143" y="714" type="line"/>
    </contour>
  </outline>
</glyph>
<glyph name="u10484" format="2">
  <advance width="778"/>
  <unicode hex="10484"/>
  <outline>
    <contour>
      <point x="556" y="-12" type="curve" smooth="yes"/>
      <point x="694" y="-12"/>
      <point x="739" y="98"/>
      <point x="739" y="213" type="curve" smooth="yes"/>
      <point x="739" y="226"/>
      <point x="737" y="267"/>
      <point x="729" y="303" type="curve"/>
      <point x="644" y="282" type="line"/>
      <point x="650" y="249"/>
      <point x="651" y="215"/>
      <point x="651" y="206" type="curve" smooth="yes"/>
      <point x="651" y="149"/>
      <point x="638" y="66"/>
      <point x="559" y="66" type="curve" smooth="yes"/>
      <point x="521" y="66"/>
      <point x="501" y="92"/>
      <point x="501" y="157" type="curve" smooth="yes"/>
      <point x="501" y="177"/>
      <point x="505" y="212"/>
      <point x="509" y="254" type="curve" smooth="yes"/>
      <point x="557" y="714" type="line"/>
      <point x="445" y="714" type="line"/>
      <point x="321" y="529" type="line"/>
      <point x="233" y="714" type="line"/>
      <point x="124" y="714" type="line"/>
      <point x="49" y="0" type="line"/>
      <point x="139" y="0" type="line"/>
      <point x="184" y="433" type="line" smooth="yes"/>
      <point x="191" y="503"/>
      <point x="194" y="565"/>
      <point x="195" y="606" type="curve"/>
      <point x="199" y="606" type="line"/>
      <point x="285" y="420" type="line"/>
      <point x="334" y="420" type="line"/>
      <point x="459" y="605" type="line"/>
      <point x="463" y="605" type="line"/>
      <point x="416" y="232" type="line" smooth="yes"/>
      <point x="412" y="201"/>
      <point x="408" y="162"/>
      <point x="408" y="145" type="curve" smooth="yes"/>
      <point x="408" y="40"/>
      <point x="458" y="-12"/>
    </contour>
  </outline>
</glyph>
<glyph name="u10485" format="2">
  <advance width="703"/>
  <unicode hex="10485"/>
  <outline>
    <contour>
      <point x="480" y="-12" type="curve" smooth="yes"/>
      <point x="619" y="-12"/>
      <point x="664" y="88"/>
      <point x="664" y="204" type="curve" smooth="yes"/>
      <point x="664" y="216"/>
      <point x="661" y="267"/>
      <point x="654" y="303" type="curve"/>
      <point x="568" y="282" type="line"/>
      <point x="575" y="248"/>
      <point x="576" y="200"/>
      <point x="576" y="190" type="curve" smooth="yes"/>
      <point x="576" y="125"/>
      <point x="562" y="66"/>
      <point x="483" y="66" type="curve" smooth="yes"/>
      <point x="440" y="66"/>
      <point x="424" y="90"/>
      <point x="424" y="120" type="curve" smooth="yes"/>
      <point x="424" y="182"/>
      <point x="437" y="242"/>
      <point x="437" y="302" type="curve" smooth="yes"/>
      <point x="437" y="404"/>
      <point x="402" y="464"/>
      <point x="290" y="464" type="curve" smooth="yes"/>
      <point x="250" y="464"/>
      <point x="214" y="455"/>
      <point x="185" y="438" type="curve"/>
      <point x="190" y="487" type="line" smooth="yes"/>
      <point x="200" y="582"/>
      <point x="236" y="646"/>
      <point x="321" y="646" type="curve" smooth="yes"/>
      <point x="373" y="646"/>
      <point x="414" y="625"/>
      <point x="448" y="590" type="curve"/>
      <point x="511" y="648" type="line"/>
      <point x="463" y="693"/>
      <point x="413" y="725"/>
      <point x="331" y="725" type="curve" smooth="yes"/>
      <point x="183" y="725"/>
      <point x="114" y="630"/>
      <point x="100" y="491" type="curve" smooth="yes"/>
      <point x="49" y="0" type="line"/>
      <point x="139" y="0" type="line"/>
      <point x="175" y="347" type="line"/>
      <point x="196" y="371"/>
      <point x="227" y="386"/>
      <point x="270" y="386" type="curve" smooth="yes"/>
      <point x="333" y="386"/>
      <point x="346" y="352"/>
      <point x="346" y="292" type="curve" smooth="yes"/>
      <point x="346" y="232"/>
      <point x="332" y="176"/>
      <point x="332" y="120" type="curve" smooth="yes"/>
      <point x="332" y="15"/>
      <point x="399" y="-12"/>
    </contour>
  </outline>
</glyph>
<glyph name="u10486" format="2">
  <advance width="744"/>
  <unicode hex="10486"/>
  <outline>
    <contour>
      <point x="329" y="-11" type="curve" smooth="yes"/>
      <point x="551" y="-11"/>
      <point x="681" y="147"/>
      <point x="681" y="409" type="curve" smooth="yes"/>
      <point x="681" y="597"/>
      <point x="586" y="725"/>
      <point x="407" y="725" type="curve" smooth="yes"/>
      <point x="172" y="725"/>
      <point x="54" y="545"/>
      <point x="54" y="304" type="curve" smooth="yes"/>
      <point x="54" y="119"/>
      <point x="143" y="-11"/>
    </contour>
    <contour>
      <point x="337" y="67" type="curve" smooth="yes"/>
      <point x="209" y="67"/>
      <point x="148" y="164"/>
      <point x="148" y="308" type="curve" smooth="yes"/>
      <point x="148" y="505"/>
      <point x="229" y="647"/>
      <point x="399" y="647" type="curve" smooth="yes"/>
      <point x="527" y="647"/>
      <point x="586" y="552"/>
      <point x="586" y="408" type="curve" smooth="yes"/>
      <point x="586" y="212"/>
      <point x="506" y="67"/>
    </contour>
  </outline>
</glyph>
<glyph name="u10487" format="2">
  <advance width="458"/>
  <unicode hex="10487"/>
  <outline>
    <contour>
      <point x="244" y="0" type="line"/>
      <point x="334" y="0" type="line"/>
      <point x="409" y="714" type="line"/>
      <point x="349" y="714" type="line"/>
      <point x="313" y="707"/>
      <point x="292" y="704"/>
      <point x="264" y="704" type="curve" smooth="yes"/>
      <point x="192" y="704"/>
      <point x="160" y="725"/>
      <point x="96" y="725" type="curve" smooth="yes"/>
      <point x="60" y="725"/>
      <point x="31" y="720"/>
      <point x="0" y="704" type="curve"/>
      <point x="30" y="636" type="line"/>
      <point x="58" y="646"/>
      <point x="82" y="646"/>
      <point x="96" y="646" type="curve" smooth="yes"/>
      <point x="141" y="646"/>
      <point x="186" y="625"/>
      <point x="254" y="625" type="curve" smooth="yes"/>
      <point x="278" y="625"/>
      <point x="284" y="627"/>
      <point x="311" y="632" type="curve"/>
    </contour>
  </outline>
</glyph>
<glyph name="u10488" format="2">
  <advance width="564"/>
  <unicode hex="10488"/>
  <outline>
    <contour>
      <point x="256" y="-11" type="curve" smooth="yes"/>
      <point x="411" y="-11"/>
      <point x="505" y="94"/>
      <point x="505" y="235" type="curve" smooth="yes"/>
      <point x="505" y="318"/>
      <point x="466" y="423"/>
      <point x="292" y="464" type="curve"/>
      <point x="314" y="502"/>
      <point x="330" y="543"/>
      <point x="330" y="593" type="curve" smooth="yes"/>
      <point x="330" y="671"/>
      <point x="276" y="725"/>
      <point x="180" y="725" type="curve" smooth="yes"/>
      <point x="127" y="725"/>
      <point x="82" y="714"/>
      <point x="29" y="684" type="curve"/>
      <point x="60" y="617" type="line"/>
      <point x="87" y="633"/>
      <point x="119" y="646"/>
      <point x="165" y="646" type="curve" smooth="yes"/>
      <point x="212" y="646"/>
      <point x="235" y="619"/>
      <point x="235" y="585" type="curve" smooth="yes"/>
      <point x="235" y="451"/>
      <point x="56" y="352"/>
      <point x="56" y="164" type="curve" smooth="yes"/>
      <point x="56" y="67"/>
      <point x="127" y="-11"/>
    </contour>
    <contour>
      <point x="271" y="67" type="curve" smooth="yes"/>
      <point x="196" y="67"/>
      <point x="151" y="111"/>
      <point x="151" y="172" type="curve" smooth="yes"/>
      <point x="151" y="268"/>
      <point x="197" y="331"/>
      <point x="243" y="393" type="curve"/>
      <point x="353" y="373"/>
      <point x="411" y="311"/>
      <point x="411" y="229" type="curve" smooth="yes"/>
      <point x="411" y="151"/>
      <point x="363" y="67"/>
    </contour>
  </outline>
</glyph>
<glyph name="u10489" format="2">
  <advance width="554"/>
  <unicode hex="10489"/>
  <outline>
    <contour>
      <point x="375" y="-11" type="curve" smooth="yes"/>
      <point x="427" y="-11"/>
      <point x="473" y="0"/>
      <point x="525" y="30" type="curve"/>
      <point x="494" y="97" type="line"/>
      <point x="467" y="81"/>
      <point x="435" y="67"/>
      <point x="389" y="67" type="curve" smooth="yes"/>
      <point x="342" y="67"/>
      <point x="319" y="95"/>
      <point x="319" y="129" type="curve" smooth="yes"/>
      <point x="319" y="263"/>
      <point x="498" y="361"/>
      <point x="498" y="549" type="curve" smooth="yes"/>
      <point x="498" y="646"/>
      <point x="427" y="725"/>
      <point x="298" y="725" type="curve" smooth="yes"/>
      <point x="144" y="725"/>
      <point x="49" y="619"/>
      <point x="49" y="477" type="curve" smooth="yes"/>
      <point x="49" y="394"/>
      <point x="88" y="289"/>
      <point x="262" y="248" type="curve"/>
      <point x="240" y="210"/>
      <point x="224" y="171"/>
      <point x="224" y="121" type="curve" smooth="yes"/>
      <point x="224" y="42"/>
      <point x="278" y="-11"/>
    </contour>
    <contour>
      <point x="311" y="319" type="curve"/>
      <point x="201" y="340"/>
      <point x="144" y="401"/>
      <point x="144" y="483" type="curve" smooth="yes"/>
      <point x="144" y="561"/>
      <point x="191" y="646"/>
      <point x="283" y="646" type="curve" smooth="yes"/>
      <point x="358" y="646"/>
      <point x="403" y="601"/>
      <point x="403" y="540" type="curve" smooth="yes"/>
      <point x="403" y="445"/>
      <point x="356" y="381"/>
    </contour>
  </outline>
</glyph>
<glyph name="u1048A" format="2">
  <advance width="623"/>
  <unicode hex="1048A"/>
  <outline>
    <contour>
      <point x="326" y="-11" type="curve" smooth="yes"/>
      <point x="447" y="-11"/>
      <point x="502" y="101"/>
      <point x="502" y="221" type="curve" smooth="yes"/>
      <point x="502" y="249"/>
      <point x="502" y="286"/>
      <point x="496" y="313" type="curve"/>
      <point x="529" y="313"/>
      <point x="561" y="313"/>
      <point x="594" y="316" type="curve"/>
      <point x="604" y="396" type="line"/>
      <point x="569" y="392"/>
      <point x="536" y="391"/>
      <point x="502" y="391" type="curve" smooth="yes"/>
      <point x="466" y="391"/>
      <point x="435" y="393"/>
      <point x="399" y="396" type="curve"/>
      <point x="394" y="321" type="line"/>
      <point x="409" y="297"/>
      <point x="412" y="267"/>
      <point x="412" y="234" type="curve" smooth="yes"/>
      <point x="412" y="96"/>
      <point x="369" y="67"/>
      <point x="323" y="67" type="curve" smooth="yes"/>
      <point x="297" y="67"/>
      <point x="267" y="81"/>
      <point x="266" y="149" type="curve" smooth="yes"/>
      <point x="266" y="163"/>
      <point x="267" y="184"/>
      <point x="269" y="203" type="curve" smooth="yes"/>
      <point x="324" y="714" type="line"/>
      <point x="260" y="714" type="line"/>
      <point x="240" y="707"/>
      <point x="219" y="705"/>
      <point x="188" y="705" type="curve" smooth="yes"/>
      <point x="145" y="705"/>
      <point x="106" y="725"/>
      <point x="59" y="725" type="curve" smooth="yes"/>
      <point x="42" y="725"/>
      <point x="28" y="724"/>
      <point x="15" y="721" type="curve"/>
      <point x="27" y="645" type="line"/>
      <point x="38" y="646"/>
      <point x="53" y="646"/>
      <point x="60" y="646" type="curve" smooth="yes"/>
      <point x="89" y="646"/>
      <point x="143" y="625"/>
      <point x="188" y="625" type="curve" smooth="yes"/>
      <point x="201" y="625"/>
      <point x="213" y="626"/>
      <point x="226" y="630" type="curve"/>
      <point x="178" y="198" type="line" smooth="yes"/>
      <point x="176" y="180"/>
      <point x="175" y="162"/>
      <point x="175" y="146" type="curve" smooth="yes"/>
      <point x="175" y="42"/>
      <point x="225" y="-11"/>
    </contour>
  </outline>
</glyph>
<glyph name="u1048B" format="2">
  <advance width="504"/>
  <unicode hex="1048B"/>
  <outline>
    <contour>
      <point x="131" y="-11" type="curve" smooth="yes"/>
      <point x="240" y="-11"/>
      <point x="333" y="66"/>
      <point x="378" y="226" type="curve"/>
      <point x="406" y="228"/>
      <point x="432" y="229"/>
      <point x="453" y="229" type="curve"/>
      <point x="465" y="305" type="line"/>
      <point x="443" y="305"/>
      <point x="419" y="304"/>
      <point x="395" y="302" type="curve"/>
      <point x="397" y="318"/>
      <point x="399" y="333"/>
      <point x="401" y="350" type="curve" smooth="yes"/>
      <point x="438" y="714" type="line"/>
      <point x="349" y="714" type="line"/>
      <point x="330" y="540" type="line" smooth="yes"/>
      <point x="324" y="487"/>
      <point x="302" y="458"/>
      <point x="250" y="458" type="curve" smooth="yes"/>
      <point x="196" y="458"/>
      <point x="185" y="492"/>
      <point x="185" y="530" type="curve" smooth="yes"/>
      <point x="185" y="541"/>
      <point x="186" y="552"/>
      <point x="187" y="563" type="curve" smooth="yes"/>
      <point x="202" y="714" type="line"/>
      <point x="112" y="714" type="line"/>
      <point x="94" y="540" type="line" smooth="yes"/>
      <point x="93" y="530"/>
      <point x="93" y="521"/>
      <point x="93" y="513" type="curve" smooth="yes"/>
      <point x="93" y="423"/>
      <point x="147" y="379"/>
      <point x="235" y="379" type="curve" smooth="yes"/>
      <point x="265" y="379"/>
      <point x="292" y="386"/>
      <point x="314" y="397" type="curve"/>
      <point x="309" y="353" type="line" smooth="yes"/>
      <point x="307" y="333"/>
      <point x="304" y="313"/>
      <point x="300" y="292" type="curve"/>
      <point x="152" y="270"/>
      <point x="0" y="215"/>
      <point x="0" y="103" type="curve" smooth="yes"/>
      <point x="0" y="28"/>
      <point x="48" y="-11"/>
    </contour>
    <contour>
      <point x="133" y="67" type="curve" smooth="yes"/>
      <point x="107" y="67"/>
      <point x="90" y="85"/>
      <point x="90" y="104" type="curve" smooth="yes"/>
      <point x="90" y="163"/>
      <point x="185" y="196"/>
      <point x="284" y="213" type="curve"/>
      <point x="260" y="132"/>
      <point x="218" y="67"/>
    </contour>
  </outline>
</glyph>
<glyph name="u1048C" format="2">
  <advance width="690"/>
  <unicode hex="1048C"/>
  <outline>
    <contour>
      <point x="466" y="-11" type="curve" smooth="yes"/>
      <point x="604" y="-11"/>
      <point x="651" y="99"/>
      <point x="651" y="215" type="curve" smooth="yes"/>
      <point x="651" y="228"/>
      <point x="650" y="267"/>
      <point x="642" y="303" type="curve"/>
      <point x="556" y="282" type="line"/>
      <point x="563" y="248"/>
      <point x="563" y="217"/>
      <point x="563" y="207" type="curve" smooth="yes"/>
      <point x="563" y="150"/>
      <point x="550" y="67"/>
      <point x="471" y="67" type="curve" smooth="yes"/>
      <point x="433" y="67"/>
      <point x="413" y="93"/>
      <point x="413" y="159" type="curve" smooth="yes"/>
      <point x="413" y="200"/>
      <point x="422" y="233"/>
      <point x="422" y="269" type="curve" smooth="yes"/>
      <point x="422" y="329"/>
      <point x="396" y="372"/>
      <point x="338" y="418" type="curve" smooth="yes"/>
      <point x="313" y="438" type="line"/>
      <point x="358" y="482"/>
      <point x="395" y="531"/>
      <point x="395" y="602" type="curve" smooth="yes"/>
      <point x="395" y="663"/>
      <point x="354" y="725"/>
      <point x="247" y="725" type="curve" smooth="yes"/>
      <point x="150" y="725"/>
      <point x="104" y="660"/>
      <point x="104" y="597" type="curve" smooth="yes"/>
      <point x="104" y="533"/>
      <point x="138" y="484"/>
      <point x="184" y="438" type="curve"/>
      <point x="94" y="360"/>
      <point x="84" y="346"/>
      <point x="73" y="240" type="curve" smooth="yes"/>
      <point x="49" y="0" type="line"/>
      <point x="139" y="0" type="line"/>
      <point x="163" y="236" type="line" smooth="yes"/>
      <point x="170" y="300"/>
      <point x="195" y="330"/>
      <point x="249" y="379" type="curve"/>
      <point x="286" y="346" type="line" smooth="yes"/>
      <point x="314" y="321"/>
      <point x="329" y="290"/>
      <point x="329" y="250" type="curve" smooth="yes"/>
      <point x="329" y="214"/>
      <point x="320" y="181"/>
      <point x="320" y="146" type="curve" smooth="yes"/>
      <point x="320" y="41"/>
      <point x="376" y="-11"/>
    </contour>
    <contour>
      <point x="248" y="493" type="curve"/>
      <point x="215" y="525"/>
      <point x="194" y="558"/>
      <point x="194" y="596" type="curve" smooth="yes"/>
      <point x="194" y="615"/>
      <point x="209" y="646"/>
      <point x="248" y="646" type="curve" smooth="yes"/>
      <point x="279" y="646"/>
      <point x="304" y="628"/>
      <point x="304" y="595" type="curve" smooth="yes"/>
      <point x="304" y="548"/>
      <point x="282" y="524"/>
    </contour>
  </outline>
</glyph>
<glyph name="u1048D" format="2">
  <advance width="596"/>
  <unicode hex="1048D"/>
  <outline>
    <contour>
      <point x="374" y="-11" type="curve" smooth="yes"/>
      <point x="512" y="-11"/>
      <point x="557" y="98"/>
      <point x="557" y="213" type="curve" smooth="yes"/>
      <point x="557" y="226"/>
      <point x="555" y="267"/>
      <point x="547" y="303" type="curve"/>
      <point x="462" y="282" type="line"/>
      <point x="468" y="255"/>
      <point x="469" y="215"/>
      <point x="469" y="206" type="curve" smooth="yes"/>
      <point x="469" y="149"/>
      <point x="456" y="67"/>
      <point x="377" y="67" type="curve" smooth="yes"/>
      <point x="339" y="67"/>
      <point x="319" y="93"/>
      <point x="319" y="159" type="curve" smooth="yes"/>
      <point x="319" y="179"/>
      <point x="323" y="212"/>
      <point x="327" y="254" type="curve" smooth="yes"/>
      <point x="375" y="714" type="line"/>
      <point x="285" y="714" type="line"/>
      <point x="266" y="540" type="line" smooth="yes"/>
      <point x="260" y="487"/>
      <point x="238" y="458"/>
      <point x="186" y="458" type="curve" smooth="yes"/>
      <point x="133" y="458"/>
      <point x="122" y="492"/>
      <point x="122" y="530" type="curve" smooth="yes"/>
      <point x="122" y="541"/>
      <point x="123" y="552"/>
      <point x="124" y="563" type="curve" smooth="yes"/>
      <point x="139" y="714" type="line"/>
      <point x="49" y="714" type="line"/>
      <point x="31" y="540" type="line" smooth="yes"/>
      <point x="30" y="530"/>
      <point x="29" y="521"/>
      <point x="29" y="513" type="curve" smooth="yes"/>
      <point x="29" y="423"/>
      <point x="83" y="379"/>
      <point x="172" y="379" type="curve" smooth="yes"/>
      <point x="200" y="379"/>
      <point x="229" y="385"/>
      <point x="251" y="395" type="curve"/>
      <point x="234" y="232" type="line" smooth="yes"/>
      <point x="231" y="204"/>
      <point x="226" y="163"/>
      <point x="226" y="146" type="curve" smooth="yes"/>
      <point x="226" y="41"/>
      <point x="286" y="-11"/>
    </contour>
  </outline>
</glyph>
<glyph name="u1048E" format="2">
  <advance width="778"/>
  <unicode hex="1048E"/>
  <outline>
    <contour>
      <point x="128" y="-11" type="curve" smooth="yes"/>
      <point x="231" y="-11"/>
      <point x="296" y="46"/>
      <point x="308" y="180" type="curve" smooth="yes"/>
      <point x="320" y="315" type="line"/>
      <point x="357" y="332"/>
      <point x="395" y="347"/>
      <point x="430" y="365" type="curve"/>
      <point x="416" y="233" type="line" smooth="yes"/>
      <point x="409" y="167"/>
      <point x="408" y="163"/>
      <point x="408" y="146" type="curve" smooth="yes"/>
      <point x="408" y="41"/>
      <point x="463" y="-11"/>
      <point x="556" y="-11" type="curve" smooth="yes"/>
      <point x="694" y="-11"/>
      <point x="739" y="98"/>
      <point x="739" y="213" type="curve" smooth="yes"/>
      <point x="739" y="226"/>
      <point x="736" y="267"/>
      <point x="729" y="303" type="curve"/>
      <point x="644" y="282" type="line"/>
      <point x="648" y="248"/>
      <point x="651" y="215"/>
      <point x="651" y="206" type="curve" smooth="yes"/>
      <point x="651" y="149"/>
      <point x="637" y="67"/>
      <point x="559" y="67" type="curve" smooth="yes"/>
      <point x="521" y="67"/>
      <point x="500" y="93"/>
      <point x="500" y="159" type="curve" smooth="yes"/>
      <point x="500" y="179"/>
      <point x="503" y="212"/>
      <point x="508" y="254" type="curve" smooth="yes"/>
      <point x="526" y="414" type="line"/>
      <point x="636" y="470"/>
      <point x="724" y="531"/>
      <point x="724" y="626" type="curve" smooth="yes"/>
      <point x="724" y="678"/>
      <point x="687" y="725"/>
      <point x="617" y="725" type="curve" smooth="yes"/>
      <point x="514" y="725"/>
      <point x="463" y="667"/>
      <point x="449" y="535" type="curve" smooth="yes"/>
      <point x="441" y="457" type="line"/>
      <point x="409" y="438"/>
      <point x="370" y="420"/>
      <point x="329" y="402" type="curve"/>
      <point x="341" y="525" type="line" smooth="yes"/>
      <point x="342" y="538"/>
      <point x="344" y="550"/>
      <point x="344" y="563" type="curve" smooth="yes"/>
      <point x="344" y="665"/>
      <point x="301" y="725"/>
      <point x="189" y="725" type="curve" smooth="yes"/>
      <point x="130" y="725"/>
      <point x="81" y="709"/>
      <point x="51" y="684" type="curve"/>
      <point x="100" y="619" type="line"/>
      <point x="118" y="637"/>
      <point x="147" y="646"/>
      <point x="171" y="646" type="curve" smooth="yes"/>
      <point x="234" y="646"/>
      <point x="252" y="613"/>
      <point x="252" y="553" type="curve" smooth="yes"/>
      <point x="252" y="544"/>
      <point x="252" y="535"/>
      <point x="251" y="526" type="curve" smooth="yes"/>
      <point x="235" y="363" type="line"/>
      <point x="114" y="309"/>
      <point x="0" y="243"/>
      <point x="0" y="126" type="curve" smooth="yes"/>
      <point x="0" y="55"/>
      <point x="42" y="-11"/>
    </contour>
    <contour>
      <point x="142" y="67" type="curve" smooth="yes"/>
      <point x="113" y="67"/>
      <point x="90" y="90"/>
      <point x="90" y="133" type="curve" smooth="yes"/>
      <point x="90" y="192"/>
      <point x="149" y="234"/>
      <point x="227" y="273" type="curve"/>
      <point x="219" y="183" type="line" smooth="yes"/>
      <point x="212" y="109"/>
      <point x="180" y="67"/>
    </contour>
    <contour>
      <point x="535" y="504" type="curve"/>
      <point x="538" y="532" type="line" smooth="yes"/>
      <point x="545" y="605"/>
      <point x="562" y="646"/>
      <point x="600" y="646" type="curve" smooth="yes"/>
      <point x="621" y="646"/>
      <point x="633" y="630"/>
      <point x="633" y="612" type="curve" smooth="yes"/>
      <point x="633" y="571"/>
      <point x="592" y="537"/>
    </contour>
  </outline>
</glyph>
<glyph name="u1048F" format="2">
  <advance width="460"/>
  <unicode hex="1048F"/>
  <outline>
    <contour>
      <point x="20" y="0" type="line"/>
      <point x="109" y="0" type="line"/>
      <point x="126" y="153" type="line" smooth="yes"/>
      <point x="132" y="206"/>
      <point x="149" y="235"/>
      <point x="195" y="235" type="curve" smooth="yes"/>
      <point x="249" y="235"/>
      <point x="274" y="210"/>
      <point x="274" y="172" type="curve"/>
      <point x="256" y="0" type="line"/>
      <point x="346" y="0" type="line"/>
      <point x="421" y="714" type="line"/>
      <point x="332" y="714" type="line"/>
      <point x="313" y="540" type="line" smooth="yes"/>
      <point x="307" y="487"/>
      <point x="285" y="458"/>
      <point x="232" y="458" type="curve" smooth="yes"/>
      <point x="179" y="458"/>
      <point x="168" y="492"/>
      <point x="168" y="530" type="curve" smooth="yes"/>
      <point x="168" y="541"/>
      <point x="169" y="552"/>
      <point x="170" y="563" type="curve" smooth="yes"/>
      <point x="185" y="714" type="line"/>
      <point x="95" y="714" type="line"/>
      <point x="77" y="540" type="line" smooth="yes"/>
      <point x="76" y="530"/>
      <point x="76" y="521"/>
      <point x="76" y="513" type="curve" smooth="yes"/>
      <point x="76" y="423"/>
      <point x="130" y="379"/>
      <point x="218" y="379" type="curve" smooth="yes"/>
      <point x="248" y="379"/>
      <point x="274" y="386"/>
      <point x="297" y="397" type="curve"/>
      <point x="287" y="293" type="line"/>
      <point x="260" y="307"/>
      <point x="227" y="313"/>
      <point x="192" y="313" type="curve" smooth="yes"/>
      <point x="99" y="313"/>
      <point x="46" y="265"/>
      <point x="36" y="164" type="curve" smooth="yes"/>
    </contour>
  </outline>
</glyph>
<glyph name="u10490" format="2">
  <advance width="738"/>
  <unicode hex="10490"/>
  <outline>
    <contour>
      <point x="516" y="-11" type="curve" smooth="yes"/>
      <point x="654" y="-11"/>
      <point x="699" y="99"/>
      <point x="699" y="215" type="curve" smooth="yes"/>
      <point x="699" y="228"/>
      <point x="698" y="267"/>
      <point x="689" y="303" type="curve"/>
      <point x="604" y="282" type="line"/>
      <point x="610" y="248"/>
      <point x="611" y="217"/>
      <point x="611" y="207" type="curve" smooth="yes"/>
      <point x="611" y="150"/>
      <point x="597" y="67"/>
      <point x="519" y="67" type="curve" smooth="yes"/>
      <point x="480" y="67"/>
      <point x="460" y="93"/>
      <point x="460" y="159" type="curve" smooth="yes"/>
      <point x="460" y="179"/>
      <point x="464" y="222"/>
      <point x="469" y="264" type="curve" smooth="yes"/>
      <point x="491" y="460" type="line" smooth="yes"/>
      <point x="495" y="495"/>
      <point x="498" y="527"/>
      <point x="498" y="556" type="curve" smooth="yes"/>
      <point x="498" y="660"/>
      <point x="464" y="725"/>
      <point x="325" y="725" type="curve" smooth="yes"/>
      <point x="136" y="725"/>
      <point x="112" y="610"/>
      <point x="97" y="462" type="curve" smooth="yes"/>
      <point x="49" y="0" type="line"/>
      <point x="138" y="0" type="line"/>
      <point x="187" y="462" type="line" smooth="yes"/>
      <point x="198" y="570"/>
      <point x="217" y="647"/>
      <point x="312" y="647" type="curve" smooth="yes"/>
      <point x="383" y="647"/>
      <point x="405" y="604"/>
      <point x="405" y="530" type="curve" smooth="yes"/>
      <point x="405" y="510"/>
      <point x="404" y="487"/>
      <point x="401" y="463" type="curve" smooth="yes"/>
      <point x="376" y="242" type="line" smooth="yes"/>
      <point x="369" y="176"/>
      <point x="368" y="163"/>
      <point x="368" y="146" type="curve" smooth="yes"/>
      <point x="368" y="41"/>
      <point x="423" y="-11"/>
    </contour>
  </outline>
</glyph>
<glyph name="u10491" format="2">
  <advance width="511"/>
  <unicode hex="10491"/>
  <outline>
    <contour>
      <point x="224" y="-11" type="curve" smooth="yes"/>
      <point x="385" y="-11"/>
      <point x="453" y="110"/>
      <point x="453" y="268" type="curve" smooth="yes"/>
      <point x="453" y="416"/>
      <point x="371" y="497"/>
      <point x="249" y="497" type="curve" smooth="yes"/>
      <point x="218" y="497"/>
      <point x="180" y="488"/>
      <point x="159" y="476" type="curve"/>
      <point x="184" y="714" type="line"/>
      <point x="94" y="714" type="line"/>
      <point x="51" y="303" type="line"/>
      <point x="141" y="303" type="line"/>
      <point x="148" y="380" type="line"/>
      <point x="166" y="404"/>
      <point x="210" y="418"/>
      <point x="243" y="418" type="curve" smooth="yes"/>
      <point x="308" y="418"/>
      <point x="358" y="374"/>
      <point x="358" y="264" type="curve" smooth="yes"/>
      <point x="358" y="154"/>
      <point x="316" y="67"/>
      <point x="223" y="67" type="curve" smooth="yes"/>
      <point x="171" y="67"/>
      <point x="122" y="83"/>
      <point x="108" y="159" type="curve"/>
      <point x="20" y="153" type="line"/>
      <point x="42" y="24"/>
      <point x="124" y="-11"/>
    </contour>
  </outline>
</glyph>
<glyph name="u10492" format="2">
  <advance width="546"/>
  <unicode hex="10492"/>
  <outline>
    <contour>
      <point x="230" y="-11" type="curve" smooth="yes"/>
      <point x="358" y="-11"/>
      <point x="481" y="43"/>
      <point x="501" y="251" type="curve" smooth="yes"/>
      <point x="507" y="313" type="line"/>
      <point x="417" y="313" type="line"/>
      <point x="412" y="265" type="line" smooth="yes"/>
      <point x="402" y="162"/>
      <point x="353" y="67"/>
      <point x="248" y="67" type="curve" smooth="yes"/>
      <point x="176" y="67"/>
      <point x="129" y="102"/>
      <point x="129" y="182" type="curve" smooth="yes"/>
      <point x="129" y="313"/>
      <point x="424" y="328"/>
      <point x="424" y="578" type="curve" smooth="yes"/>
      <point x="424" y="653"/>
      <point x="378" y="725"/>
      <point x="254" y="725" type="curve" smooth="yes"/>
      <point x="130" y="725"/>
      <point x="77" y="669"/>
      <point x="60" y="573" type="curve"/>
      <point x="152" y="558" type="line"/>
      <point x="156" y="585"/>
      <point x="169" y="646"/>
      <point x="251" y="646" type="curve" smooth="yes"/>
      <point x="306" y="646"/>
      <point x="330" y="618"/>
      <point x="330" y="576" type="curve" smooth="yes"/>
      <point x="330" y="354"/>
      <point x="34" y="371"/>
      <point x="34" y="176" type="curve" smooth="yes"/>
      <point x="34" y="85"/>
      <point x="86" y="-11"/>
    </contour>
  </outline>
</glyph>
<glyph name="u10493" format="2">
  <advance width="869"/>
  <unicode hex="10493"/>
  <outline>
    <contour>
      <point x="646" y="-11" type="curve" smooth="yes"/>
      <point x="785" y="-11"/>
      <point x="830" y="88"/>
      <point x="830" y="204" type="curve" smooth="yes"/>
      <point x="830" y="216"/>
      <point x="829" y="267"/>
      <point x="820" y="303" type="curve"/>
      <point x="734" y="282" type="line"/>
      <point x="741" y="248"/>
      <point x="742" y="200"/>
      <point x="742" y="190" type="curve" smooth="yes"/>
      <point x="742" y="125"/>
      <point x="728" y="67"/>
      <point x="649" y="67" type="curve" smooth="yes"/>
      <point x="606" y="67"/>
      <point x="590" y="92"/>
      <point x="590" y="122" type="curve" smooth="yes"/>
      <point x="590" y="184"/>
      <point x="603" y="242"/>
      <point x="603" y="302" type="curve" smooth="yes"/>
      <point x="603" y="404"/>
      <point x="568" y="464"/>
      <point x="456" y="464" type="curve" smooth="yes"/>
      <point x="418" y="464"/>
      <point x="384" y="456"/>
      <point x="356" y="441" type="curve"/>
      <point x="385" y="714" type="line"/>
      <point x="295" y="714" type="line"/>
      <point x="276" y="540" type="line" smooth="yes"/>
      <point x="270" y="487"/>
      <point x="248" y="458"/>
      <point x="196" y="458" type="curve" smooth="yes"/>
      <point x="143" y="458"/>
      <point x="131" y="492"/>
      <point x="131" y="530" type="curve" smooth="yes"/>
      <point x="131" y="541"/>
      <point x="132" y="552"/>
      <point x="133" y="563" type="curve" smooth="yes"/>
      <point x="148" y="714" type="line"/>
      <point x="59" y="714" type="line"/>
      <point x="41" y="540" type="line" smooth="yes"/>
      <point x="40" y="530"/>
      <point x="39" y="521"/>
      <point x="39" y="513" type="curve" smooth="yes"/>
      <point x="39" y="423"/>
      <point x="93" y="379"/>
      <point x="182" y="379" type="curve" smooth="yes"/>
      <point x="211" y="379"/>
      <point x="238" y="386"/>
      <point x="261" y="397" type="curve"/>
      <point x="220" y="0" type="line"/>
      <point x="310" y="0" type="line"/>
      <point x="347" y="353" type="line"/>
      <point x="367" y="373"/>
      <point x="396" y="386"/>
      <point x="436" y="386" type="curve" smooth="yes"/>
      <point x="499" y="386"/>
      <point x="512" y="352"/>
      <point x="512" y="292" type="curve" smooth="yes"/>
      <point x="512" y="232"/>
      <point x="498" y="178"/>
      <point x="498" y="121" type="curve" smooth="yes"/>
      <point x="498" y="16"/>
      <point x="565" y="-11"/>
    </contour>
  </outline>
</glyph>
<glyph name="u10494" format="2">
  <advance width="580"/>
  <unicode hex="10494"/>
  <outline>
    <contour>
      <point x="260" y="-11" type="curve" smooth="yes"/>
      <point x="394" y="-11"/>
      <point x="506" y="47"/>
      <point x="541" y="269" type="curve"/>
      <point x="445" y="269" type="line"/>
      <point x="437" y="184"/>
      <point x="385" y="67"/>
      <point x="271" y="67" type="curve" smooth="yes"/>
      <point x="195" y="67"/>
      <point x="142" y="116"/>
      <point x="142" y="219" type="curve" smooth="yes"/>
      <point x="142" y="287"/>
      <point x="170" y="343"/>
      <point x="216" y="380" type="curve"/>
      <point x="249" y="352"/>
      <point x="292" y="334"/>
      <point x="348" y="334" type="curve" smooth="yes"/>
      <point x="421" y="334"/>
      <point x="486" y="371"/>
      <point x="486" y="478" type="curve" smooth="yes"/>
      <point x="486" y="559"/>
      <point x="470" y="664"/>
      <point x="450" y="714" type="curve"/>
      <point x="360" y="714" type="line"/>
      <point x="383" y="645"/>
      <point x="395" y="537"/>
      <point x="395" y="475" type="curve" smooth="yes"/>
      <point x="395" y="440"/>
      <point x="378" y="412"/>
      <point x="336" y="412" type="curve" smooth="yes"/>
      <point x="253" y="412"/>
      <point x="215" y="541"/>
      <point x="205" y="630" type="curve" smooth="yes"/>
      <point x="196" y="714" type="line"/>
      <point x="106" y="714" type="line"/>
      <point x="117" y="611" type="line" smooth="yes"/>
      <point x="123" y="555"/>
      <point x="138" y="493"/>
      <point x="167" y="441" type="curve"/>
      <point x="78" y="376"/>
      <point x="49" y="284"/>
      <point x="49" y="208" type="curve" smooth="yes"/>
      <point x="49" y="104"/>
      <point x="116" y="-11"/>
    </contour>
  </outline>
</glyph>
<glyph name="u10495" format="2">
  <advance width="561"/>
  <unicode hex="10495"/>
  <outline>
    <contour>
      <point x="250" y="-11" type="curve" smooth="yes"/>
      <point x="388" y="-11"/>
      <point x="497" y="62"/>
      <point x="517" y="265" type="curve" smooth="yes"/>
      <point x="522" y="313" type="line"/>
      <point x="432" y="313" type="line"/>
      <point x="428" y="274" type="line" smooth="yes"/>
      <point x="419" y="189"/>
      <point x="381" y="67"/>
      <point x="267" y="67" type="curve" smooth="yes"/>
      <point x="184" y="67"/>
      <point x="142" y="106"/>
      <point x="142" y="209" type="curve" smooth="yes"/>
      <point x="142" y="283"/>
      <point x="186" y="334"/>
      <point x="235" y="380" type="curve"/>
      <point x="252" y="365"/>
      <point x="269" y="351"/>
      <point x="284" y="337" type="curve"/>
      <point x="347" y="401" type="line"/>
      <point x="330" y="413"/>
      <point x="314" y="426"/>
      <point x="299" y="438" type="curve"/>
      <point x="343" y="482"/>
      <point x="380" y="531"/>
      <point x="380" y="602" type="curve" smooth="yes"/>
      <point x="380" y="678"/>
      <point x="326" y="725"/>
      <point x="239" y="725" type="curve" smooth="yes"/>
      <point x="132" y="725"/>
      <point x="89" y="660"/>
      <point x="89" y="597" type="curve" smooth="yes"/>
      <point x="89" y="538"/>
      <point x="125" y="486"/>
      <point x="172" y="438" type="curve"/>
      <point x="83" y="356"/>
      <point x="49" y="283"/>
      <point x="49" y="203" type="curve" smooth="yes"/>
      <point x="49" y="99"/>
      <point x="95" y="-11"/>
    </contour>
    <contour>
      <point x="235" y="494" type="curve"/>
      <point x="201" y="528"/>
      <point x="179" y="562"/>
      <point x="179" y="596" type="curve" smooth="yes"/>
      <point x="179" y="615"/>
      <point x="194" y="646"/>
      <point x="236" y="646" type="curve" smooth="yes"/>
      <point x="262" y="646"/>
      <point x="290" y="634"/>
      <point x="290" y="601" type="curve" smooth="yes"/>
      <point x="290" y="555"/>
      <point x="268" y="525"/>
    </contour>
  </outline>
</glyph>
<glyph name="u10496" format="2">
  <advance width="507"/>
  <unicode hex="10496"/>
  <outline>
    <contour>
      <point x="231" y="-11" type="curve" smooth="yes"/>
      <point x="379" y="-11"/>
      <point x="458" y="70"/>
      <point x="458" y="192" type="curve" smooth="yes"/>
      <point x="458" y="295"/>
      <point x="374" y="351"/>
      <point x="299" y="406" type="curve" smooth="yes"/>
      <point x="239" y="450"/>
      <point x="185" y="493"/>
      <point x="185" y="559" type="curve" smooth="yes"/>
      <point x="185" y="630"/>
      <point x="247" y="646"/>
      <point x="275" y="646" type="curve" smooth="yes"/>
      <point x="311" y="646"/>
      <point x="354" y="631"/>
      <point x="393" y="595" type="curve"/>
      <point x="440" y="664" type="line"/>
      <point x="399" y="703"/>
      <point x="342" y="725"/>
      <point x="271" y="725" type="curve" smooth="yes"/>
      <point x="178" y="725"/>
      <point x="90" y="674"/>
      <point x="90" y="551" type="curve" smooth="yes"/>
      <point x="90" y="446"/>
      <point x="165" y="392"/>
      <point x="237" y="342" type="curve" smooth="yes"/>
      <point x="300" y="298"/>
      <point x="364" y="251"/>
      <point x="364" y="182" type="curve" smooth="yes"/>
      <point x="364" y="125"/>
      <point x="334" y="67"/>
      <point x="230" y="67" type="curve" smooth="yes"/>
      <point x="144" y="67"/>
      <point x="87" y="126"/>
      <point x="62" y="156" type="curve"/>
      <point x="0" y="94" type="line"/>
      <point x="68" y="16"/>
      <point x="149" y="-11"/>
    </contour>
  </outline>
</glyph>
<glyph name="u10497" format="2">
  <advance width="409"/>
  <unicode hex="10497"/>
  <outline>
    <contour>
      <point x="187" y="-11" type="curve" smooth="yes"/>
      <point x="325" y="-11"/>
      <point x="370" y="98"/>
      <point x="370" y="213" type="curve" smooth="yes"/>
      <point x="370" y="226"/>
      <point x="367" y="267"/>
      <point x="360" y="303" type="curve"/>
      <point x="275" y="282" type="line"/>
      <point x="281" y="251"/>
      <point x="282" y="215"/>
      <point x="282" y="206" type="curve" smooth="yes"/>
      <point x="282" y="149"/>
      <point x="269" y="67"/>
      <point x="190" y="67" type="curve" smooth="yes"/>
      <point x="152" y="67"/>
      <point x="132" y="92"/>
      <point x="132" y="157" type="curve" smooth="yes"/>
      <point x="132" y="177"/>
      <point x="136" y="212"/>
      <point x="140" y="254" type="curve" smooth="yes"/>
      <point x="188" y="714" type="line"/>
      <point x="99" y="714" type="line"/>
      <point x="47" y="232" type="line" smooth="yes"/>
      <point x="44" y="205"/>
      <point x="39" y="172"/>
      <point x="39" y="145" type="curve" smooth="yes"/>
      <point x="39" y="40"/>
      <point x="106" y="-11"/>
    </contour>
  </outline>
</glyph>
<glyph name="u10498" format="2">
  <advance width="504"/>
  <unicode hex="10498"/>
  <outline>
    <contour>
      <point x="125" y="-22" type="line"/>
      <point x="370" y="20"/>
      <point x="446" y="329"/>
      <point x="446" y="514" type="curve" smooth="yes"/>
      <point x="446" y="649"/>
      <point x="368" y="725"/>
      <point x="253" y="725" type="curve" smooth="yes"/>
      <point x="123" y="725"/>
      <point x="39" y="638"/>
      <point x="39" y="484" type="curve" smooth="yes"/>
      <point x="39" y="349"/>
      <point x="119" y="273"/>
      <point x="231" y="273" type="curve" smooth="yes"/>
      <point x="266" y="273"/>
      <point x="295" y="279"/>
      <point x="322" y="291" type="curve"/>
      <point x="288" y="175"/>
      <point x="222" y="82"/>
      <point x="110" y="52" type="curve"/>
    </contour>
    <contour>
      <point x="236" y="351" type="curve" smooth="yes"/>
      <point x="162" y="351"/>
      <point x="134" y="400"/>
      <point x="134" y="483" type="curve" smooth="yes"/>
      <point x="134" y="567"/>
      <point x="157" y="646"/>
      <point x="248" y="646" type="curve" smooth="yes"/>
      <point x="313" y="646"/>
      <point x="351" y="598"/>
      <point x="351" y="514" type="curve" smooth="yes"/>
      <point x="351" y="413"/>
      <point x="316" y="351"/>
    </contour>
  </outline>
</glyph>
<glyph name="u10499" format="2">
  <advance width="793"/>
  <unicode hex="10499"/>
  <outline>
    <contour>
      <point x="571" y="-11" type="curve" smooth="yes"/>
      <point x="709" y="-11"/>
      <point x="754" y="88"/>
      <point x="754" y="204" type="curve" smooth="yes"/>
      <point x="754" y="216"/>
      <point x="751" y="267"/>
      <point x="745" y="303" type="curve"/>
      <point x="659" y="282" type="line"/>
      <point x="664" y="248"/>
      <point x="667" y="200"/>
      <point x="667" y="190" type="curve" smooth="yes"/>
      <point x="667" y="125"/>
      <point x="653" y="67"/>
      <point x="574" y="67" type="curve" smooth="yes"/>
      <point x="531" y="67"/>
      <point x="515" y="92"/>
      <point x="515" y="122" type="curve" smooth="yes"/>
      <point x="515" y="184"/>
      <point x="528" y="242"/>
      <point x="528" y="302" type="curve" smooth="yes"/>
      <point x="528" y="404"/>
      <point x="493" y="464"/>
      <point x="381" y="464" type="curve" smooth="yes"/>
      <point x="343" y="464"/>
      <point x="310" y="456"/>
      <point x="281" y="441" type="curve"/>
      <point x="290" y="526" type="line" smooth="yes"/>
      <point x="291" y="539"/>
      <point x="293" y="550"/>
      <point x="293" y="563" type="curve" smooth="yes"/>
      <point x="293" y="665"/>
      <point x="250" y="725"/>
      <point x="138" y="725" type="curve" smooth="yes"/>
      <point x="80" y="725"/>
      <point x="30" y="709"/>
      <point x="0" y="684" type="curve"/>
      <point x="49" y="619" type="line"/>
      <point x="67" y="637"/>
      <point x="97" y="646"/>
      <point x="121" y="646" type="curve" smooth="yes"/>
      <point x="183" y="646"/>
      <point x="201" y="613"/>
      <point x="201" y="553" type="curve" smooth="yes"/>
      <point x="201" y="544"/>
      <point x="201" y="536"/>
      <point x="200" y="526" type="curve" smooth="yes"/>
      <point x="145" y="0" type="line"/>
      <point x="235" y="0" type="line"/>
      <point x="272" y="353" type="line"/>
      <point x="292" y="374"/>
      <point x="321" y="386"/>
      <point x="360" y="386" type="curve" smooth="yes"/>
      <point x="424" y="386"/>
      <point x="437" y="352"/>
      <point x="437" y="292" type="curve" smooth="yes"/>
      <point x="437" y="232"/>
      <point x="422" y="178"/>
      <point x="422" y="121" type="curve" smooth="yes"/>
      <point x="422" y="16"/>
      <point x="490" y="-11"/>
    </contour>
  </outline>
</glyph>
<glyph name="u1049A" format="2">
  <advance width="502"/>
  <unicode hex="1049A"/>
  <outline>
    <contour>
      <point x="0" y="0" type="line"/>
      <point x="90" y="0" type="line"/>
      <point x="105" y="138" type="line" smooth="yes"/>
      <point x="113" y="213"/>
      <point x="151" y="288"/>
      <point x="235" y="288" type="curve" smooth="yes"/>
      <point x="283" y="288"/>
      <point x="311" y="270"/>
      <point x="326" y="241" type="curve"/>
      <point x="300" y="0" type="line"/>
      <point x="390" y="0" type="line"/>
      <point x="441" y="472" type="line" smooth="yes"/>
      <point x="442" y="485"/>
      <point x="449" y="550"/>
      <point x="449" y="563" type="curve" smooth="yes"/>
      <point x="449" y="665"/>
      <point x="406" y="725"/>
      <point x="293" y="725" type="curve" smooth="yes"/>
      <point x="235" y="725"/>
      <point x="186" y="709"/>
      <point x="155" y="684" type="curve"/>
      <point x="204" y="619" type="line"/>
      <point x="223" y="637"/>
      <point x="252" y="646"/>
      <point x="276" y="646" type="curve" smooth="yes"/>
      <point x="338" y="646"/>
      <point x="356" y="618"/>
      <point x="356" y="559" type="curve" smooth="yes"/>
      <point x="356" y="550"/>
      <point x="353" y="504"/>
      <point x="352" y="495" type="curve" smooth="yes"/>
      <point x="335" y="338" type="line"/>
      <point x="309" y="356"/>
      <point x="274" y="366"/>
      <point x="231" y="366" type="curve" smooth="yes"/>
      <point x="84" y="366"/>
      <point x="28" y="271"/>
      <point x="15" y="143" type="curve" smooth="yes"/>
    </contour>
  </outline>
</glyph>
<glyph name="u1049B" format="2">
  <advance width="536"/>
  <unicode hex="1049B"/>
  <outline>
    <contour>
      <point x="317" y="0" type="line"/>
      <point x="407" y="0" type="line"/>
      <point x="451" y="414" type="line"/>
      <point x="361" y="414" type="line"/>
      <point x="353" y="333" type="line"/>
      <point x="335" y="310"/>
      <point x="291" y="295"/>
      <point x="259" y="295" type="curve" smooth="yes"/>
      <point x="193" y="295"/>
      <point x="144" y="340"/>
      <point x="144" y="450" type="curve" smooth="yes"/>
      <point x="144" y="560"/>
      <point x="186" y="646"/>
      <point x="279" y="646" type="curve" smooth="yes"/>
      <point x="330" y="646"/>
      <point x="379" y="631"/>
      <point x="394" y="555" type="curve"/>
      <point x="482" y="561" type="line"/>
      <point x="459" y="689"/>
      <point x="377" y="725"/>
      <point x="278" y="725" type="curve" smooth="yes"/>
      <point x="116" y="725"/>
      <point x="49" y="604"/>
      <point x="49" y="446" type="curve" smooth="yes"/>
      <point x="49" y="298"/>
      <point x="130" y="217"/>
      <point x="253" y="217" type="curve" smooth="yes"/>
      <point x="281" y="217"/>
      <point x="316" y="224"/>
      <point x="342" y="236" type="curve"/>
    </contour>
  </outline>
</glyph>
<glyph name="u1049C" format="2">
  <advance width="708"/>
  <unicode hex="1049C"/>
  <outline>
    <contour>
      <point x="211" y="-11" type="curve" smooth="yes"/>
      <point x="288" y="-11"/>
      <point x="338" y="9"/>
      <point x="371" y="42" type="curve"/>
      <point x="397" y="5"/>
      <point x="438" y="-11"/>
      <point x="486" y="-11" type="curve" smooth="yes"/>
      <point x="625" y="-11"/>
      <point x="669" y="98"/>
      <point x="669" y="213" type="curve" smooth="yes"/>
      <point x="669" y="226"/>
      <point x="667" y="267"/>
      <point x="660" y="303" type="curve"/>
      <point x="574" y="282" type="line"/>
      <point x="580" y="250"/>
      <point x="582" y="215"/>
      <point x="582" y="206" type="curve" smooth="yes"/>
      <point x="582" y="149"/>
      <point x="568" y="67"/>
      <point x="489" y="67" type="curve" smooth="yes"/>
      <point x="451" y="67"/>
      <point x="433" y="91"/>
      <point x="433" y="156" type="curve" smooth="yes"/>
      <point x="433" y="195"/>
      <point x="436" y="224"/>
      <point x="439" y="252" type="curve" smooth="yes"/>
      <point x="488" y="714" type="line"/>
      <point x="398" y="714" type="line"/>
      <point x="350" y="252" type="line" smooth="yes"/>
      <point x="339" y="144"/>
      <point x="316" y="67"/>
      <point x="221" y="67" type="curve" smooth="yes"/>
      <point x="149" y="67"/>
      <point x="132" y="109"/>
      <point x="132" y="184" type="curve" smooth="yes"/>
      <point x="132" y="204"/>
      <point x="134" y="227"/>
      <point x="136" y="251" type="curve" smooth="yes"/>
      <point x="184" y="714" type="line"/>
      <point x="94" y="714" type="line"/>
      <point x="45" y="254" type="line" smooth="yes"/>
      <point x="41" y="219"/>
      <point x="39" y="187"/>
      <point x="39" y="158" type="curve" smooth="yes"/>
      <point x="39" y="78"/>
      <point x="72" y="-11"/>
    </contour>
  </outline>
</glyph>
<glyph name="u1049D" format="2">
  <advance width="998"/>
  <unicode hex="1049D"/>
  <outline>
    <contour>
      <point x="776" y="-11" type="curve" smooth="yes"/>
      <point x="914" y="-11"/>
      <point x="959" y="98"/>
      <point x="959" y="213" type="curve" smooth="yes"/>
      <point x="959" y="226"/>
      <point x="957" y="267"/>
      <point x="949" y="303" type="curve"/>
      <point x="864" y="282" type="line"/>
      <point x="869" y="252"/>
      <point x="871" y="215"/>
      <point x="871" y="206" type="curve" smooth="yes"/>
      <point x="871" y="149"/>
      <point x="857" y="67"/>
      <point x="779" y="67" type="curve" smooth="yes"/>
      <point x="741" y="67"/>
      <point x="719" y="92"/>
      <point x="719" y="146" type="curve" smooth="yes"/>
      <point x="719" y="191"/>
      <point x="734" y="262"/>
      <point x="734" y="302" type="curve" smooth="yes"/>
      <point x="734" y="405"/>
      <point x="667" y="444"/>
      <point x="587" y="444" type="curve" smooth="yes"/>
      <point x="538" y="444"/>
      <point x="496" y="427"/>
      <point x="465" y="397" type="curve"/>
      <point x="439" y="428"/>
      <point x="400" y="444"/>
      <point x="352" y="444" type="curve" smooth="yes"/>
      <point x="323" y="444"/>
      <point x="293" y="438"/>
      <point x="271" y="427" type="curve"/>
      <point x="280" y="515" type="line" smooth="yes"/>
      <point x="282" y="532"/>
      <point x="284" y="551"/>
      <point x="284" y="563" type="curve" smooth="yes"/>
      <point x="284" y="666"/>
      <point x="241" y="725"/>
      <point x="128" y="725" type="curve" smooth="yes"/>
      <point x="70" y="725"/>
      <point x="21" y="709"/>
      <point x="-10" y="684" type="curve"/>
      <point x="39" y="619" type="line"/>
      <point x="58" y="637"/>
      <point x="87" y="646"/>
      <point x="111" y="646" type="curve" smooth="yes"/>
      <point x="173" y="646"/>
      <point x="191" y="613"/>
      <point x="191" y="554" type="curve" smooth="yes"/>
      <point x="191" y="545"/>
      <point x="186" y="493"/>
      <point x="185" y="484" type="curve" smooth="yes"/>
      <point x="137" y="0" type="line"/>
      <point x="227" y="0" type="line"/>
      <point x="258" y="284" type="line" smooth="yes"/>
      <point x="264" y="337"/>
      <point x="286" y="366"/>
      <point x="338" y="366" type="curve" smooth="yes"/>
      <point x="391" y="366"/>
      <point x="402" y="332"/>
      <point x="402" y="294" type="curve" smooth="yes"/>
      <point x="402" y="283"/>
      <point x="401" y="272"/>
      <point x="400" y="261" type="curve" smooth="yes"/>
      <point x="373" y="0" type="line"/>
      <point x="463" y="0" type="line"/>
      <point x="493" y="284" type="line" smooth="yes"/>
      <point x="499" y="337"/>
      <point x="526" y="366"/>
      <point x="578" y="366" type="curve" smooth="yes"/>
      <point x="624" y="366"/>
      <point x="639" y="335"/>
      <point x="639" y="299" type="curve" smooth="yes"/>
      <point x="639" y="246"/>
      <point x="625" y="191"/>
      <point x="625" y="140" type="curve" smooth="yes"/>
      <point x="625" y="35"/>
      <point x="682" y="-11"/>
    </contour>
  </outline>
</glyph>
<glyph name="u104A0" format="2">
  <advance width="628"/>
  <unicode hex="104A0"/>
  <outline>
    <contour>
      <point x="271" y="-11" type="curve" smooth="yes"/>
      <point x="469" y="-11"/>
      <point x="565" y="151"/>
      <point x="565" y="409" type="curve" smooth="yes"/>
      <point x="565" y="597"/>
      <point x="499" y="725"/>
      <point x="334" y="725" type="curve" smooth="yes"/>
      <point x="148" y="725"/>
      <point x="49" y="558"/>
      <point x="49" y="316" type="curve" smooth="yes"/>
      <point x="49" y="116"/>
      <point x="118" y="-11"/>
    </contour>
    <contour>
      <point x="282" y="67" type="curve" smooth="yes"/>
      <point x="184" y="67"/>
      <point x="144" y="164"/>
      <point x="144" y="308" type="curve" smooth="yes"/>
      <point x="144" y="505"/>
      <point x="211" y="646"/>
      <point x="332" y="646" type="curve" smooth="yes"/>
      <point x="440" y="646"/>
      <point x="470" y="539"/>
      <point x="470" y="395" type="curve" smooth="yes"/>
      <point x="470" y="189"/>
      <point x="390" y="67"/>
    </contour>
  </outline>
</glyph>
<glyph name="u104A1" format="2">
  <advance width="441"/>
  <unicode hex="104A1"/>
  <outline>
    <contour>
      <point x="106" y="-11" type="curve" smooth="yes"/>
      <point x="279" y="-11"/>
      <point x="362" y="63"/>
      <point x="362" y="207" type="curve" smooth="yes"/>
      <point x="362" y="352"/>
      <point x="219" y="416"/>
      <point x="219" y="545" type="curve" smooth="yes"/>
      <point x="219" y="606"/>
      <point x="266" y="646"/>
      <point x="323" y="646" type="curve" smooth="yes"/>
      <point x="344" y="646"/>
      <point x="359" y="646"/>
      <point x="373" y="645" type="curve"/>
      <point x="373" y="722" type="line"/>
      <point x="354" y="724"/>
      <point x="335" y="725"/>
      <point x="315" y="725" type="curve" smooth="yes"/>
      <point x="210" y="725"/>
      <point x="125" y="658"/>
      <point x="125" y="527" type="curve" smooth="yes"/>
      <point x="125" y="390"/>
      <point x="267" y="325"/>
      <point x="267" y="202" type="curve" smooth="yes"/>
      <point x="267" y="129"/>
      <point x="243" y="67"/>
      <point x="106" y="67" type="curve" smooth="yes"/>
      <point x="63" y="67"/>
      <point x="32" y="70"/>
      <point x="0" y="78" type="curve"/>
      <point x="0" y="-1" type="line"/>
      <point x="33" y="-8"/>
      <point x="64" y="-11"/>
    </contour>
  </outline>
</glyph>
<glyph name="u104A2" format="2">
  <advance width="600"/>
  <unicode hex="104A2"/>
  <outline>
    <contour>
      <point x="284" y="-11" type="curve" smooth="yes"/>
      <point x="410" y="-11"/>
      <point x="534" y="50"/>
      <point x="556" y="265" type="curve" smooth="yes"/>
      <point x="561" y="313" type="line"/>
      <point x="470" y="313" type="line"/>
      <point x="467" y="278" type="line" smooth="yes"/>
      <point x="458" y="188"/>
      <point x="417" y="67"/>
      <point x="301" y="67" type="curve" smooth="yes"/>
      <point x="229" y="67"/>
      <point x="166" y="107"/>
      <point x="166" y="210" type="curve" smooth="yes"/>
      <point x="166" y="307"/>
      <point x="223" y="389"/>
      <point x="307" y="417" type="curve"/>
      <point x="284" y="491" type="line"/>
      <point x="251" y="479"/>
      <point x="223" y="464"/>
      <point x="199" y="447" type="curve"/>
      <point x="177" y="469"/>
      <point x="153" y="502"/>
      <point x="153" y="548" type="curve" smooth="yes"/>
      <point x="153" y="592"/>
      <point x="180" y="646"/>
      <point x="264" y="646" type="curve" smooth="yes"/>
      <point x="314" y="646"/>
      <point x="347" y="623"/>
      <point x="369" y="584" type="curve"/>
      <point x="442" y="638" type="line"/>
      <point x="405" y="693"/>
      <point x="348" y="725"/>
      <point x="266" y="725" type="curve" smooth="yes"/>
      <point x="87" y="725"/>
      <point x="59" y="610"/>
      <point x="59" y="544" type="curve" smooth="yes"/>
      <point x="59" y="478"/>
      <point x="86" y="422"/>
      <point x="132" y="381" type="curve"/>
      <point x="88" y="328"/>
      <point x="71" y="258"/>
      <point x="71" y="203" type="curve" smooth="yes"/>
      <point x="71" y="99"/>
      <point x="140" y="-11"/>
    </contour>
  </outline>
</glyph>
<glyph name="u104A3" format="2">
  <advance width="625"/>
  <unicode hex="104A3"/>
  <outline>
    <contour>
      <point x="510" y="-11" type="curve" smooth="yes"/>
      <point x="548" y="-11"/>
      <point x="583" y="-4"/>
      <point x="610" y="7" type="curve"/>
      <point x="590" y="86" type="line"/>
      <point x="572" y="73"/>
      <point x="548" y="67"/>
      <point x="527" y="67" type="curve" smooth="yes"/>
      <point x="475" y="67"/>
      <point x="459" y="97"/>
      <point x="459" y="142" type="curve" smooth="yes"/>
      <point x="459" y="151"/>
      <point x="460" y="160"/>
      <point x="461" y="170" type="curve" smooth="yes"/>
      <point x="469" y="240" type="line" smooth="yes"/>
      <point x="471" y="254"/>
      <point x="473" y="289"/>
      <point x="473" y="302" type="curve" smooth="yes"/>
      <point x="473" y="404"/>
      <point x="412" y="464"/>
      <point x="300" y="464" type="curve" smooth="yes"/>
      <point x="266" y="464"/>
      <point x="236" y="458"/>
      <point x="210" y="446" type="curve"/>
      <point x="230" y="636" type="line"/>
      <point x="273" y="636" type="line" smooth="yes"/>
      <point x="304" y="636"/>
      <point x="378" y="638"/>
      <point x="439" y="647" type="curve"/>
      <point x="450" y="729" type="line"/>
      <point x="393" y="716"/>
      <point x="304" y="714"/>
      <point x="272" y="714" type="curve" smooth="yes"/>
      <point x="231" y="714" type="line" smooth="yes"/>
      <point x="199" y="714"/>
      <point x="106" y="716"/>
      <point x="50" y="730" type="curve"/>
      <point x="39" y="651" type="line"/>
      <point x="69" y="645"/>
      <point x="106" y="641"/>
      <point x="140" y="639" type="curve"/>
      <point x="73" y="0" type="line"/>
      <point x="163" y="0" type="line"/>
      <point x="201" y="362" type="line"/>
      <point x="221" y="377"/>
      <point x="246" y="386"/>
      <point x="279" y="386" type="curve" smooth="yes"/>
      <point x="343" y="386"/>
      <point x="382" y="352"/>
      <point x="382" y="292" type="curve" smooth="yes"/>
      <point x="382" y="280"/>
      <point x="382" y="266"/>
      <point x="380" y="250" type="curve" smooth="yes"/>
      <point x="371" y="167" type="line" smooth="yes"/>
      <point x="369" y="146"/>
      <point x="369" y="141"/>
      <point x="369" y="136" type="curve" smooth="yes"/>
      <point x="369" y="50"/>
      <point x="410" y="-11"/>
    </contour>
  </outline>
</glyph>
<glyph name="u104A4" format="2">
  <advance width="569"/>
  <unicode hex="104A4"/>
  <outline>
    <contour>
      <point x="242" y="-11" type="curve" smooth="yes"/>
      <point x="354" y="-11"/>
      <point x="465" y="54"/>
      <point x="465" y="193" type="curve" smooth="yes"/>
      <point x="465" y="275"/>
      <point x="407" y="334"/>
      <point x="346" y="395" type="curve"/>
      <point x="420" y="459"/>
      <point x="493" y="538"/>
      <point x="505" y="656" type="curve" smooth="yes"/>
      <point x="511" y="714" type="line"/>
      <point x="421" y="714" type="line"/>
      <point x="414" y="649" type="line" smooth="yes"/>
      <point x="405" y="567"/>
      <point x="353" y="506"/>
      <point x="291" y="451" type="curve"/>
      <point x="245" y="501"/>
      <point x="208" y="556"/>
      <point x="208" y="627" type="curve" smooth="yes"/>
      <point x="208" y="635"/>
      <point x="208" y="642"/>
      <point x="209" y="649" type="curve" smooth="yes"/>
      <point x="216" y="714" type="line"/>
      <point x="126" y="714" type="line"/>
      <point x="121" y="656" type="line" smooth="yes"/>
      <point x="120" y="645"/>
      <point x="119" y="633"/>
      <point x="119" y="623" type="curve" smooth="yes"/>
      <point x="119" y="522"/>
      <point x="169" y="453"/>
      <point x="225" y="395" type="curve"/>
      <point x="137" y="323"/>
      <point x="59" y="256"/>
      <point x="59" y="149" type="curve" smooth="yes"/>
      <point x="59" y="40"/>
      <point x="139" y="-11"/>
    </contour>
    <contour>
      <point x="251" y="67" type="curve" smooth="yes"/>
      <point x="204" y="67"/>
      <point x="153" y="91"/>
      <point x="153" y="163" type="curve" smooth="yes"/>
      <point x="153" y="234"/>
      <point x="208" y="282"/>
      <point x="279" y="341" type="curve"/>
      <point x="329" y="292"/>
      <point x="371" y="248"/>
      <point x="371" y="193" type="curve" smooth="yes"/>
      <point x="371" y="96"/>
      <point x="297" y="67"/>
    </contour>
  </outline>
</glyph>
<glyph name="u104A5" format="2">
  <advance width="462"/>
  <unicode hex="104A5"/>
  <outline>
    <contour>
      <point x="235" y="-11" type="curve" smooth="yes"/>
      <point x="381" y="-11"/>
      <point x="423" y="97"/>
      <point x="423" y="213" type="curve" smooth="yes"/>
      <point x="423" y="226"/>
      <point x="420" y="267"/>
      <point x="413" y="303" type="curve"/>
      <point x="328" y="282" type="line"/>
      <point x="333" y="249"/>
      <point x="335" y="215"/>
      <point x="335" y="206" type="curve" smooth="yes"/>
      <point x="335" y="133"/>
      <point x="313" y="67"/>
      <point x="238" y="67" type="curve" smooth="yes"/>
      <point x="175" y="67"/>
      <point x="151" y="93"/>
      <point x="151" y="146" type="curve" smooth="yes"/>
      <point x="151" y="236"/>
      <point x="205" y="273"/>
      <point x="205" y="404" type="curve" smooth="yes"/>
      <point x="205" y="419"/>
      <point x="203" y="436"/>
      <point x="199" y="454" type="curve"/>
      <point x="342" y="458"/>
      <point x="368" y="552"/>
      <point x="368" y="602" type="curve" smooth="yes"/>
      <point x="368" y="678"/>
      <point x="322" y="725"/>
      <point x="235" y="725" type="curve" smooth="yes"/>
      <point x="128" y="725"/>
      <point x="85" y="660"/>
      <point x="85" y="597" type="curve" smooth="yes"/>
      <point x="85" y="539"/>
      <point x="114" y="474"/>
      <point x="114" y="403" type="curve" smooth="yes"/>
      <point x="114" y="262"/>
      <point x="59" y="239"/>
      <point x="59" y="145" type="curve" smooth="yes"/>
      <point x="59" y="53"/>
      <point x="98" y="-11"/>
    </contour>
    <contour>
      <point x="186" y="531" type="curve"/>
      <point x="183" y="552"/>
      <point x="178" y="574"/>
      <point x="178" y="596" type="curve" smooth="yes"/>
      <point x="178" y="615"/>
      <point x="190" y="647"/>
      <point x="232" y="647" type="curve" smooth="yes"/>
      <point x="258" y="647"/>
      <point x="278" y="634"/>
      <point x="278" y="601" type="curve" smooth="yes"/>
      <point x="278" y="536"/>
      <point x="225" y="531"/>
    </contour>
  </outline>
</glyph>
<glyph name="u104A6" format="2">
  <advance width="453"/>
  <unicode hex="104A6"/>
  <outline>
    <contour>
      <point x="100" y="-24" type="line"/>
      <point x="277" y="-1"/>
      <point x="333" y="100"/>
      <point x="348" y="250" type="curve" smooth="yes"/>
      <point x="395" y="714" type="line"/>
      <point x="305" y="714" type="line"/>
      <point x="286" y="540" type="line" smooth="yes"/>
      <point x="280" y="487"/>
      <point x="258" y="458"/>
      <point x="206" y="458" type="curve" smooth="yes"/>
      <point x="152" y="458"/>
      <point x="141" y="492"/>
      <point x="141" y="530" type="curve" smooth="yes"/>
      <point x="141" y="541"/>
      <point x="142" y="552"/>
      <point x="143" y="563" type="curve" smooth="yes"/>
      <point x="158" y="714" type="line"/>
      <point x="68" y="714" type="line"/>
      <point x="50" y="540" type="line" smooth="yes"/>
      <point x="49" y="530"/>
      <point x="49" y="521"/>
      <point x="49" y="513" type="curve" smooth="yes"/>
      <point x="49" y="423"/>
      <point x="103" y="379"/>
      <point x="191" y="379" type="curve" smooth="yes"/>
      <point x="215" y="379"/>
      <point x="249" y="386"/>
      <point x="272" y="398" type="curve"/>
      <point x="258" y="256" type="line" smooth="yes"/>
      <point x="244" y="118"/>
      <point x="203" y="75"/>
      <point x="86" y="54" type="curve"/>
    </contour>
  </outline>
</glyph>
<glyph name="u104A7" format="2">
  <advance width="513"/>
  <unicode hex="104A7"/>
  <outline>
    <contour>
      <point x="177" y="-11" type="curve" smooth="yes"/>
      <point x="412" y="-11"/>
      <point x="449" y="239"/>
      <point x="449" y="382" type="curve" smooth="yes"/>
      <point x="449" y="555"/>
      <point x="386" y="725"/>
      <point x="206" y="725" type="curve" smooth="yes"/>
      <point x="153" y="725"/>
      <point x="135" y="721"/>
      <point x="110" y="716" type="curve"/>
      <point x="126" y="642" type="line"/>
      <point x="151" y="646"/>
      <point x="175" y="646"/>
      <point x="197" y="646" type="curve" smooth="yes"/>
      <point x="320" y="646"/>
      <point x="354" y="510"/>
      <point x="354" y="379" type="curve" smooth="yes"/>
      <point x="354" y="157"/>
      <point x="275" y="67"/>
      <point x="187" y="67" type="curve" smooth="yes"/>
      <point x="129" y="67"/>
      <point x="88" y="80"/>
      <point x="60" y="109" type="curve"/>
      <point x="10" y="47" type="line"/>
      <point x="50" y="5"/>
      <point x="109" y="-11"/>
    </contour>
  </outline>
</glyph>
<glyph name="u104A8" format="2">
  <advance width="503"/>
  <unicode hex="104A8"/>
  <outline>
    <contour>
      <point x="263" y="-11" type="curve" smooth="yes"/>
      <point x="330" y="-11"/>
      <point x="391" y="5"/>
      <point x="439" y="45" type="curve"/>
      <point x="403" y="111" type="line"/>
      <point x="370" y="82"/>
      <point x="326" y="67"/>
      <point x="269" y="67" type="curve" smooth="yes"/>
      <point x="198" y="67"/>
      <point x="148" y="120"/>
      <point x="148" y="249" type="curve" smooth="yes"/>
      <point x="148" y="396"/>
      <point x="211" y="646"/>
      <point x="360" y="646" type="curve" smooth="yes"/>
      <point x="409" y="646"/>
      <point x="425" y="646"/>
      <point x="443" y="642" type="curve"/>
      <point x="474" y="716" type="line"/>
      <point x="439" y="724"/>
      <point x="407" y="725"/>
      <point x="369" y="725" type="curve" smooth="yes"/>
      <point x="162" y="725"/>
      <point x="54" y="455"/>
      <point x="54" y="249" type="curve" smooth="yes"/>
      <point x="54" y="123"/>
      <point x="88" y="-11"/>
    </contour>
  </outline>
</glyph>
<glyph name="u104A9" format="2">
  <advance width="603"/>
  <unicode hex="104A9"/>
  <outline>
    <contour>
      <point x="249" y="-11" type="curve" smooth="yes"/>
      <point x="438" y="-11"/>
      <point x="481" y="104"/>
      <point x="496" y="252" type="curve" smooth="yes"/>
      <point x="544" y="714" type="line"/>
      <point x="455" y="714" type="line"/>
      <point x="407" y="252" type="line" smooth="yes"/>
      <point x="396" y="144"/>
      <point x="372" y="67"/>
      <point x="262" y="67" type="curve" smooth="yes"/>
      <point x="176" y="67"/>
      <point x="150" y="112"/>
      <point x="150" y="192" type="curve" smooth="yes"/>
      <point x="150" y="210"/>
      <point x="151" y="230"/>
      <point x="153" y="251" type="curve" smooth="yes"/>
      <point x="202" y="714" type="line"/>
      <point x="111" y="714" type="line"/>
      <point x="63" y="254" type="line" smooth="yes"/>
      <point x="60" y="228"/>
      <point x="59" y="203"/>
      <point x="59" y="180" type="curve" smooth="yes"/>
      <point x="59" y="63"/>
      <point x="100" y="-11"/>
    </contour>
  </outline>
</glyph>
